<?xml version="1.0" encoding="UTF-8" standalone="no"?>
<!DOCTYPE svg PUBLIC "-//W3C//DTD SVG 1.1//EN"
 "http://www.w3.org/Graphics/SVG/1.1/DTD/svg11.dtd">
<!-- Generated by graphviz version 14.1.1 (20251213.1925)
 -->
<!-- Pages: 1 -->
<svg width="727pt" height="530pt"
 viewBox="0.00 0.00 727.00 530.00" xmlns="http://www.w3.org/2000/svg" xmlns:xlink="http://www.w3.org/1999/xlink">
<g id="graph0" class="graph" transform="scale(1 1) rotate(0) translate(4 525.5)">
<polygon fill="white" stroke="none" points="-4,4 -4,-525.5 723,-525.5 723,4 -4,4"/>
<g id="clust1" class="cluster">
<title>cluster_0</title>
</g>
<g id="clust2" class="cluster">
<title>cluster_1_1</title>
</g>
<g id="clust3" class="cluster">
<title>cluster_1_2</title>
</g>
<g id="clust4" class="cluster">
<title>cluster_2</title>
</g>
<g id="clust5" class="cluster">
<title>cluster_3</title>
</g>
<g id="clust6" class="cluster">
<title>cluster_4_1</title>
</g>
<g id="clust7" class="cluster">
<title>cluster_4_2</title>
</g>
<!-- pelican_software_base -->
<g id="node1" class="node">
<title>pelican_software_base</title>
<polygon fill="none" stroke="black" stroke-width="2" points="311.5,-505.5 172.5,-505.5 172.5,-469.5 311.5,-469.5 311.5,-505.5"/>
<text xml:space="preserve" text-anchor="middle" x="242" y="-482.45" font-family="Times,serif" font-size="14.00">pelican_software_base</text>
</g>
<!-- xrootd_software_init -->
<g id="node4" class="node">
<title>xrootd_software_init</title>
<polygon fill="none" stroke="black" stroke-width="2" points="306.62,-432.5 177.38,-432.5 177.38,-396.5 306.62,-396.5 306.62,-432.5"/>
<text xml:space="preserve" text-anchor="middle" x="242" y="-409.45" font-family="Times,serif" font-size="14.00">xrootd_software_init</text>
</g>
<!-- pelican_software_base&#45;&gt;xrootd_software_init -->
<g id="edge2" class="edge">
<title>pelican_software_base&#45;&gt;xrootd_software_init</title>
<path fill="none" stroke="black" d="M242,-468.58C242,-461.3 242,-452.69 242,-444.55"/>
<polygon fill="black" stroke="black" points="245.5,-444.68 242,-434.68 238.5,-444.68 245.5,-444.68"/>
</g>
<!-- central_services_base -->
<g id="node14" class="node">
<title>central_services_base</title>
<polygon fill="none" stroke="black" stroke-width="2" points="655.88,-198 522.12,-198 522.12,-162 655.88,-162 655.88,-198"/>
<text xml:space="preserve" text-anchor="middle" x="589" y="-174.95" font-family="Times,serif" font-size="14.00">central_services_base</text>
</g>
<!-- pelican_software_base&#45;&gt;central_services_base -->
<g id="edge16" class="edge">
<title>pelican_software_base&#45;&gt;central_services_base</title>
<path fill="none" stroke="black" d="M312.39,-486.37C415.11,-484.25 594,-472.39 594,-415.5 594,-415.5 594,-415.5 594,-267.5 594,-248.37 592.77,-226.91 591.53,-210.15"/>
<polygon fill="black" stroke="black" points="595.03,-210.08 590.76,-200.38 588.05,-210.63 595.03,-210.08"/>
</g>
<!-- pelican_build_base -->
<g id="node2" class="node">
<title>pelican_build_base</title>
<polygon fill="none" stroke="black" stroke-width="2" points="504.12,-359.5 383.88,-359.5 383.88,-323.5 504.12,-323.5 504.12,-359.5"/>
<text xml:space="preserve" text-anchor="middle" x="444" y="-336.45" font-family="Times,serif" font-size="14.00">pelican_build_base</text>
</g>
<!-- pelican_build -->
<g id="node3" class="node">
<title>pelican_build</title>
<polygon fill="none" stroke="black" stroke-width="2" points="488.75,-286.5 399.25,-286.5 399.25,-250.5 488.75,-250.5 488.75,-286.5"/>
<text xml:space="preserve" text-anchor="middle" x="444" y="-263.45" font-family="Times,serif" font-size="14.00">pelican_build</text>
</g>
<!-- pelican_build_base&#45;&gt;pelican_build -->
<g id="edge1" class="edge">
<title>pelican_build_base&#45;&gt;pelican_build</title>
<path fill="none" stroke="black" d="M444,-322.58C444,-315.3 444,-306.69 444,-298.55"/>
<polygon fill="black" stroke="black" points="447.5,-298.68 444,-288.68 440.5,-298.68 447.5,-298.68"/>
</g>
<!-- origin -->
<g id="node10" class="node">
<title>origin</title>
<polygon fill="none" stroke="mediumblue" stroke-width="2" points="372,-198 318,-198 318,-162 372,-162 372,-198"/>
<text xml:space="preserve" text-anchor="middle" x="345" y="-174.95" font-family="Times,serif" font-size="14.00" fill="mediumblue">origin</text>
</g>
<!-- pelican_build&#45;&gt;origin -->
<g id="edge9" class="edge">
<title>pelican_build&#45;&gt;origin</title>
<path fill="none" stroke="mediumblue" stroke-dasharray="5,2" d="M406,-249.64C397.54,-244.73 388.95,-238.96 381.75,-232.5 374,-225.54 366.94,-216.66 361.13,-208.25"/>
<polygon fill="mediumblue" stroke="mediumblue" points="364.14,-206.46 355.75,-199.99 358.28,-210.28 364.14,-206.46"/>
<text xml:space="preserve" text-anchor="middle" x="409.88" y="-219.2" font-family="Times,serif" font-size="14.00" fill="mediumblue">via COPY</text>
</g>
<!-- cache -->
<g id="node12" class="node">
<title>cache</title>
<polygon fill="none" stroke="mediumblue" stroke-width="2" points="468,-198 414,-198 414,-162 468,-162 468,-198"/>
<text xml:space="preserve" text-anchor="middle" x="441" y="-174.95" font-family="Times,serif" font-size="14.00" fill="mediumblue">cache</text>
</g>
<!-- pelican_build&#45;&gt;cache -->
<g id="edge12" class="edge">
<title>pelican_build&#45;&gt;cache</title>
<path fill="none" stroke="mediumblue" stroke-dasharray="5,2" d="M443.38,-249.58C442.98,-238.21 442.47,-223.24 442.01,-210.19"/>
<polygon fill="mediumblue" stroke="mediumblue" points="445.52,-210.29 441.67,-200.41 438.52,-210.53 445.52,-210.29"/>
<text xml:space="preserve" text-anchor="middle" x="470.89" y="-219.2" font-family="Times,serif" font-size="14.00" fill="mediumblue">via COPY</text>
</g>
<!-- pelican_build&#45;&gt;central_services_base -->
<g id="edge15" class="edge">
<title>pelican_build&#45;&gt;central_services_base</title>
<path fill="none" stroke="black" stroke-dasharray="5,2" d="M474.15,-249.58C482.9,-244.22 492.41,-238.24 501,-232.5 511.39,-225.56 513.17,-222.63 523.75,-216 530.12,-212.01 536.98,-208.02 543.78,-204.23"/>
<polygon fill="black" stroke="black" points="545.2,-207.44 552.3,-199.58 541.84,-201.3 545.2,-207.44"/>
<text xml:space="preserve" text-anchor="middle" x="551.88" y="-219.2" font-family="Times,serif" font-size="14.00">via COPY</text>
</g>
<!-- xrootd_software_base -->
<g id="node5" class="node">
<title>xrootd_software_base</title>
<polygon fill="none" stroke="black" stroke-width="2" points="310.62,-359.5 175.38,-359.5 175.38,-323.5 310.62,-323.5 310.62,-359.5"/>
<text xml:space="preserve" text-anchor="middle" x="243" y="-336.45" font-family="Times,serif" font-size="14.00">xrootd_software_base</text>
</g>
<!-- xrootd_software_init&#45;&gt;xrootd_software_base -->
<g id="edge3" class="edge">
<title>xrootd_software_init&#45;&gt;xrootd_software_base</title>
<path fill="none" stroke="black" d="M242.25,-395.58C242.35,-388.3 242.48,-379.69 242.59,-371.55"/>
<polygon fill="black" stroke="black" points="246.09,-371.73 242.73,-361.68 239.09,-371.63 246.09,-371.73"/>
</g>
<!-- xrootd_build -->
<g id="node7" class="node">
<title>xrootd_build</title>
<polygon fill="none" stroke="dimgray" stroke-width="2" points="101.88,-359.5 16.12,-359.5 16.12,-323.5 101.88,-323.5 101.88,-359.5"/>
<text xml:space="preserve" text-anchor="middle" x="59" y="-336.45" font-family="Times,serif" font-size="14.00" fill="dimgray">xrootd_build</text>
</g>
<!-- xrootd_software_init&#45;&gt;xrootd_build -->
<g id="edge5" class="edge">
<title>xrootd_software_init&#45;&gt;xrootd_build</title>
<path fill="none" stroke="dimgray" d="M195.82,-395.58C170.69,-385.84 139.47,-373.72 113.19,-363.53"/>
<polygon fill="dimgray" stroke="dimgray" points="114.64,-360.33 104.06,-359.98 112.11,-366.86 114.64,-360.33"/>
</g>
<!-- origin_software_base -->
<g id="node6" class="node">
<title>origin_software_base</title>
<polygon fill="none" stroke="black" stroke-width="2" points="304.12,-286.5 171.88,-286.5 171.88,-250.5 304.12,-250.5 304.12,-286.5"/>
<text xml:space="preserve" text-anchor="middle" x="238" y="-263.45" font-family="Times,serif" font-size="14.00">origin_software_base</text>
</g>
<!-- xrootd_software_base&#45;&gt;origin_software_base -->
<g id="edge4" class="edge">
<title>xrootd_software_base&#45;&gt;origin_software_base</title>
<path fill="none" stroke="black" d="M241.74,-322.58C241.23,-315.3 240.62,-306.69 240.05,-298.55"/>
<polygon fill="black" stroke="black" points="243.54,-298.4 239.35,-288.67 236.56,-298.9 243.54,-298.4"/>
</g>
<!-- xrootd_software_base&#45;&gt;cache -->
<g id="edge13" class="edge">
<title>xrootd_software_base&#45;&gt;cache</title>
<path fill="none" stroke="mediumblue" d="M269.74,-322.65C283.46,-312.84 299.96,-299.94 313,-286.5 339.92,-258.74 334.07,-240.48 364,-216 370.57,-210.62 386.93,-202.96 402.88,-196.17"/>
<polygon fill="mediumblue" stroke="mediumblue" points="403.91,-199.53 411.8,-192.46 401.22,-193.07 403.91,-199.53"/>
</g>
<!-- pelican_test -->
<g id="node8" class="node">
<title>pelican_test</title>
<polygon fill="none" stroke="green" stroke-width="2" points="278.25,-198 197.75,-198 197.75,-162 278.25,-162 278.25,-198"/>
<text xml:space="preserve" text-anchor="middle" x="238" y="-174.95" font-family="Times,serif" font-size="14.00" fill="green">pelican_test</text>
</g>
<!-- origin_software_base&#45;&gt;pelican_test -->
<g id="edge7" class="edge">
<title>origin_software_base&#45;&gt;pelican_test</title>
<path fill="none" stroke="green" d="M238,-249.58C238,-238.21 238,-223.24 238,-210.19"/>
<polygon fill="green" stroke="green" points="241.5,-210.41 238,-200.41 234.5,-210.41 241.5,-210.41"/>
</g>
<!-- origin_software_base&#45;&gt;origin -->
<g id="edge10" class="edge">
<title>origin_software_base&#45;&gt;origin</title>
<path fill="none" stroke="mediumblue" d="M260.17,-249.58C275.81,-236.94 296.96,-219.84 314.23,-205.87"/>
<polygon fill="mediumblue" stroke="mediumblue" points="316.1,-208.86 321.68,-199.85 311.7,-203.42 316.1,-208.86"/>
</g>
<!-- xrootd_build&#45;&gt;xrootd_software_base -->
<g id="edge6" class="edge">
<title>xrootd_build&#45;&gt;xrootd_software_base</title>
<path fill="none" stroke="dimgray" stroke-dasharray="5,2" d="M102.61,-341.5C120.72,-341.5 142.33,-341.5 163.1,-341.5"/>
<polygon fill="dimgray" stroke="dimgray" points="163.02,-345 173.02,-341.5 163.02,-338 163.02,-345"/>
<text xml:space="preserve" text-anchor="middle" x="138.62" y="-347.7" font-family="Times,serif" font-size="14.00" fill="dimgray">via mount</text>
</g>
<!-- pelican_dev -->
<g id="node9" class="node">
<title>pelican_dev</title>
<polygon fill="none" stroke="green" stroke-width="2" points="278.62,-125 197.38,-125 197.38,-89 278.62,-89 278.62,-125"/>
<text xml:space="preserve" text-anchor="middle" x="238" y="-101.95" font-family="Times,serif" font-size="14.00" fill="green">pelican_dev</text>
</g>
<!-- pelican_test&#45;&gt;pelican_dev -->
<g id="edge8" class="edge">
<title>pelican_test&#45;&gt;pelican_dev</title>
<path fill="none" stroke="green" d="M238,-161.08C238,-153.8 238,-145.19 238,-137.05"/>
<polygon fill="green" stroke="green" points="241.5,-137.18 238,-127.18 234.5,-137.18 241.5,-137.18"/>
</g>
<!-- osdf_origin -->
<g id="node11" class="node">
<title>osdf_origin</title>
<polygon fill="none" stroke="mediumblue" stroke-width="2" points="384.12,-125 305.88,-125 305.88,-89 384.12,-89 384.12,-125"/>
<text xml:space="preserve" text-anchor="middle" x="345" y="-101.95" font-family="Times,serif" font-size="14.00" fill="mediumblue">osdf_origin</text>
</g>
<!-- origin&#45;&gt;osdf_origin -->
<g id="edge11" class="edge">
<title>origin&#45;&gt;osdf_origin</title>
<path fill="none" stroke="mediumblue" d="M345,-161.08C345,-153.8 345,-145.19 345,-137.05"/>
<polygon fill="mediumblue" stroke="mediumblue" points="348.5,-137.18 345,-127.18 341.5,-137.18 348.5,-137.18"/>
</g>
<!-- osdf_cache -->
<g id="node13" class="node">
<title>osdf_cache</title>
<polygon fill="none" stroke="mediumblue" stroke-width="2" points="479.38,-125 402.62,-125 402.62,-89 479.38,-89 479.38,-125"/>
<text xml:space="preserve" text-anchor="middle" x="441" y="-101.95" font-family="Times,serif" font-size="14.00" fill="mediumblue">osdf_cache</text>
</g>
<!-- cache&#45;&gt;osdf_cache -->
<g id="edge14" class="edge">
<title>cache&#45;&gt;osdf_cache</title>
<path fill="none" stroke="mediumblue" d="M441,-161.08C441,-153.8 441,-145.19 441,-137.05"/>
<polygon fill="mediumblue" stroke="mediumblue" points="444.5,-137.18 441,-127.18 437.5,-137.18 444.5,-137.18"/>
</g>
<!-- registry -->
<g id="node15" class="node">
<title>registry</title>
<polygon fill="none" stroke="crimson" stroke-width="2" points="680.62,-125 623.38,-125 623.38,-89 680.62,-89 680.62,-125"/>
<text xml:space="preserve" text-anchor="middle" x="652" y="-101.95" font-family="Times,serif" font-size="14.00" fill="crimson">registry</text>
</g>
<!-- central_services_base&#45;&gt;registry -->
<g id="edge17" class="edge">
<title>central_services_base&#45;&gt;registry</title>
<path fill="none" stroke="crimson" d="M604.9,-161.08C612.11,-152.95 620.79,-143.17 628.73,-134.23"/>
<polygon fill="crimson" stroke="crimson" points="631.3,-136.6 635.32,-126.8 626.07,-131.95 631.3,-136.6"/>
</g>
<!-- director -->
<g id="node17" class="node">
<title>director</title>
<polygon fill="none" stroke="crimson" stroke-width="2" points="590,-125 532,-125 532,-89 590,-89 590,-125"/>
<text xml:space="preserve" text-anchor="middle" x="561" y="-101.95" font-family="Times,serif" font-size="14.00" fill="crimson">director</text>
</g>
<!-- central_services_base&#45;&gt;director -->
<g id="edge19" class="edge">
<title>central_services_base&#45;&gt;director</title>
<path fill="none" stroke="crimson" d="M581.93,-161.08C578.96,-153.54 575.43,-144.59 572.12,-136.2"/>
<polygon fill="crimson" stroke="crimson" points="575.45,-135.09 568.52,-127.07 568.93,-137.66 575.45,-135.09"/>
</g>
<!-- osdf_registry -->
<g id="node16" class="node">
<title>osdf_registry</title>
<polygon fill="none" stroke="crimson" stroke-width="2" points="702.62,-52 615.38,-52 615.38,-16 702.62,-16 702.62,-52"/>
<text xml:space="preserve" text-anchor="middle" x="659" y="-28.95" font-family="Times,serif" font-size="14.00" fill="crimson">osdf_registry</text>
</g>
<!-- registry&#45;&gt;osdf_registry -->
<g id="edge18" class="edge">
<title>registry&#45;&gt;osdf_registry</title>
<path fill="none" stroke="crimson" d="M653.77,-88.08C654.48,-80.8 655.33,-72.19 656.14,-64.05"/>
<polygon fill="crimson" stroke="crimson" points="659.61,-64.47 657.11,-54.17 652.65,-63.78 659.61,-64.47"/>
</g>
<!-- osdf_director -->
<g id="node18" class="node">
<title>osdf_director</title>
<polygon fill="none" stroke="crimson" stroke-width="2" points="597,-52 509,-52 509,-16 597,-16 597,-52"/>
<text xml:space="preserve" text-anchor="middle" x="553" y="-28.95" font-family="Times,serif" font-size="14.00" fill="crimson">osdf_director</text>
</g>
<!-- director&#45;&gt;osdf_director -->
<g id="edge20" class="edge">
<title>director&#45;&gt;osdf_director</title>
<path fill="none" stroke="crimson" d="M558.98,-88.08C558.16,-80.8 557.19,-72.19 556.27,-64.05"/>
<polygon fill="crimson" stroke="crimson" points="559.76,-63.71 555.16,-54.17 552.8,-64.5 559.76,-63.71"/>
</g>
</g>
</svg>
